<?xml version="1.0" encoding="UTF-8" standalone="no"?>
<!-- Created with Inkscape (http://www.inkscape.org/) -->

<svg
   xmlns:dc="http://purl.org/dc/elements/1.1/"
   xmlns:cc="http://creativecommons.org/ns#"
   xmlns:rdf="http://www.w3.org/1999/02/22-rdf-syntax-ns#"
   xmlns:svg="http://www.w3.org/2000/svg"
   xmlns="http://www.w3.org/2000/svg"
   xmlns:sodipodi="http://sodipodi.sourceforge.net/DTD/sodipodi-0.dtd"
   xmlns:inkscape="http://www.inkscape.org/namespaces/inkscape"
   width="500"
   height="336.26169"
   id="svg5032"
   version="1.1"
   inkscape:version="0.48.1 r9760"
   sodipodi:docname="SACDlogo.svg">
  <defs
     id="defs5034">
    <clipPath
       clipPathUnits="userSpaceOnUse"
       id="clipPath4681">
      <path
         inkscape:connector-curvature="0"
         d="m 252.24,84.68 53.88,0 0,-38.94 -53.88,0 0,38.94 z"
         clip-rule="evenodd"
         id="path4683" />
    </clipPath>
    <clipPath
       clipPathUnits="userSpaceOnUse"
       id="clipPath4689">
      <path
         inkscape:connector-curvature="0"
         d="m 0,841.98 595.2,0 L 595.2,0 0,0 0,841.98 z"
         id="path4691" />
    </clipPath>
  </defs>
  <sodipodi:namedview
     id="base"
     pagecolor="#ffffff"
     bordercolor="#ffffff"
     borderopacity="0.0"
     inkscape:pageopacity="0.0"
     inkscape:pageshadow="0"
     inkscape:zoom="1.15"
     inkscape:cx="281.13571"
     inkscape:cy="163.39631"
     inkscape:document-units="px"
     inkscape:current-layer="g4699"
     showgrid="false"
     fit-margin-top="0"
     fit-margin-left="0"
     fit-margin-right="0"
     fit-margin-bottom="0"
     inkscape:window-width="1920"
     inkscape:window-height="1033"
     inkscape:window-x="-3"
     inkscape:window-y="-3"
     inkscape:window-maximized="1"
     showborder="true"
     borderlayer="true" />
  <metadata
     id="metadata5037">
    <rdf:RDF>
      <cc:Work
         rdf:about="">
        <dc:format>image/svg+xml</dc:format>
        <dc:type
           rdf:resource="http://purl.org/dc/dcmitype/StillImage" />
        <dc:title />
      </cc:Work>
    </rdf:RDF>
  </metadata>
  <g
     inkscape:label="Layer 1"
     inkscape:groupmode="layer"
     id="layer1"
     transform="translate(-330.53256,-508.15651)">
    <g
       transform="matrix(14.75135,0,0,-14.75135,-3575.7872,1614.4533)"
       id="g4677" />
    <g
       id="g4695"
       transform="matrix(12.843235,0,0,-12.843235,544.02576,775.52698)">
      <path
         inkscape:connector-curvature="0"
         d="m 0,0 c -4.047,0.982 -8.032,3.317 -10.038,7.023 -0.108,0.2 -1.1,1.814 0.897,1.928 2.001,0.115 5.781,0.13 7.57,-0.075 1.416,-0.163 3.678,-0.582 3.678,-2.763 0,-2.061 0,-0.784 0,-1.212 0,-0.426 -0.187,-0.613 -0.457,0 C 1.221,5.88 0.153,7.767 -3.056,7.954 -5.686,8.108 -5.352,8.093 -5.942,8.004 -6.532,7.92 -7.677,7.563 -6.986,5.872 -5.88,3.172 -1.975,1.199 0.64,0.673 1.944,0.408 3.178,0.321 3.272,1.846 c 0.067,1.111 0.099,2.629 0.166,3.859 0.057,1.006 0.134,2.894 3.614,3.138 2.46,0.17 5.701,0.256 6.813,0.17 1.391,-0.109 2.726,-0.1 1.96,-1.57 C 13.819,3.611 9.795,1.177 6.505,0.232 6.159,0.128 5.336,0.096 6.293,0.591 c 1.079,0.56 6.391,3.124 6.391,6.151 0,1.03 -0.797,1.195 -1.669,1.195 -1.133,0 -1.467,0 -2.33,-0.05 C 7.395,7.81 5.865,7.34 5.617,5.38 5.312,2.957 5.535,3.815 5.144,1.938 4.81,0.311 3.609,-0.1 2.569,-0.165 1.488,-0.232 0.426,-0.1 0,0"
         style="fill:#231f20;fill-opacity:1;fill-rule:nonzero;stroke:none"
         id="path4697" />
    </g>
    <g
       id="g4699"
       transform="matrix(12.724991,0,0,-12.724991,735.26364,593.57034)">
      <path
         inkscape:connector-curvature="0"
         d="M 0.29554943,0.1831783 C -1.8380944,3.9185689 -6.8431748,6.7122899 -12.307483,6.7122899 c -6.480665,0 -11.828905,-3.6384986 -13.264119,-8.4649342 -0.178645,-0.6035567 -0.194793,-1.4119998 0.0434,-1.7248804 0.333067,-0.4380329 1.057739,-0.4420699 1.568441,-0.02927 0,0 0.576305,0.3986705 2.115476,1.6834995 1.429158,1.19802989 3.815124,2.76546076 4.995997,2.76546076 0.951763,0 1.646156,-0.54602711 1.646156,-1.46246447 0,-1.78039149 -2.113458,-2.31834429 -3.592071,-2.58378819 -0.9558,-0.1705704 -2.943096,-0.3048062 -3.184317,-0.32802 -0.584381,-0.053492 -0.75596,-0.5621758 -0.08478,-0.5843802 0.545017,-0.018167 3.573903,0.035325 4.885983,0.087808 1.604775,0.060558 4.29252,0.2321373 4.29252,3.30341359 0,2.71600541 -1.999408,3.35791531 -2.743257,3.35791531 -2.002435,0 -4.294538,-1.79754949 -5.720668,-3.09953649 -1.052692,-0.96185551 -1.363554,-0.5167576 -0.906345,0.58135234 0.739812,1.78241015 4.348032,5.68837115 9.931436,5.68837115 2.7755542,0 6.0981442,-1.2434481 7.7836623,-2.9269476 2.0054637,-2.01454729 2.7896838,-3.23982809 2.7896838,-4.6326515 0,-1.1889461 -1.1082029,-1.3191448 -1.771308,-1.3191448 -0.6620957,0 -3.3185529,0.1301987 -4.29252,0.5934637 -0.9557997,0.4582187 -1.3433678,1.0405804 -1.3433678,1.84296772 0,0.85991701 0.6156682,1.60275608 1.6522113,1.60275608 1.0415896,0 3.1227503,-1.00929222 3.5405972,-1.43016709 0.4178471,-0.42087487 0.4430793,-0.0161487 0.08579,0.37949388 C -4.2331437,0.40824955 -6.2456726,2.699343 -8.657881,2.699343 c -2.421291,0 -2.916854,-1.98023143 -2.916854,-3.15000115 0,-1.42209285 0.589427,-3.49719775 4.3419747,-3.49719775 3.3205714,0 5.2473104,-0.1201057 6.47057257,-0.068632 0.43399566,0.019176 3.47600253,-0.035325 1.05773827,4.19966509"
         style="fill:#231f20;fill-opacity:1;fill-rule:nonzero;stroke:none"
         id="path4701" />
    </g>
    <g
       id="g4703"
       transform="matrix(12.843235,0,0,-12.843235,330.53256,841.68248)">
      <path
         inkscape:connector-curvature="0"
         d="m 0,0 c 0.016,0.059 0.04,0.154 0.071,0.295 0.031,0.146 0.046,0.25 0.056,0.322 l 0.158,0 -0.002,-0.226 c 0,-0.024 0,-0.067 0.002,-0.119 C 0.338,0.206 0.435,0.148 0.577,0.089 0.723,0.039 0.878,0.011 1.04,0.011 c 0.27,0 0.459,0.05 0.575,0.143 0.115,0.098 0.171,0.217 0.171,0.354 0,0.074 -0.01,0.133 -0.028,0.181 C 1.739,0.739 1.708,0.773 1.662,0.81 1.618,0.845 1.559,0.875 1.494,0.891 1.424,0.91 1.307,0.945 1.139,0.986 0.85,1.049 0.649,1.114 0.537,1.193 0.381,1.306 0.301,1.464 0.301,1.675 c 0,0.263 0.134,0.491 0.394,0.693 0.261,0.2 0.584,0.298 0.967,0.298 0.145,0 0.285,-0.016 0.412,-0.044 C 2.201,2.592 2.319,2.546 2.425,2.487 2.398,2.39 2.376,2.305 2.357,2.227 2.338,2.149 2.322,2.038 2.298,1.894 l -0.159,0 C 2.143,1.949 2.146,1.996 2.146,2.031 2.146,2.051 2.143,2.116 2.139,2.22 2.102,2.261 2.065,2.29 2.027,2.314 1.969,2.348 1.895,2.379 1.801,2.403 1.704,2.429 1.6,2.446 1.484,2.446 1.335,2.446 1.207,2.42 1.098,2.372 0.994,2.329 0.913,2.264 0.863,2.188 0.811,2.114 0.782,2.018 0.779,1.901 0.782,1.797 0.807,1.718 0.85,1.66 0.896,1.61 1.002,1.562 1.168,1.518 1.378,1.475 1.549,1.442 1.673,1.412 1.801,1.386 1.913,1.349 2.009,1.314 2.108,1.275 2.183,1.212 2.239,1.127 2.295,1.041 2.322,0.939 2.322,0.826 2.322,0.632 2.245,0.452 2.096,0.293 1.947,0.126 1.767,0.002 1.565,-0.085 1.359,-0.169 1.13,-0.213 0.878,-0.213 c -0.167,0 -0.329,0.02 -0.484,0.057 C 0.242,-0.117 0.108,-0.065 0,0"
         style="fill:#231f20;fill-opacity:1;fill-rule:nonzero;stroke:none"
         id="path4705" />
    </g>
    <g
       id="g4707"
       transform="matrix(12.843235,0,0,-12.843235,410.03229,807.48107)">
      <path
         inkscape:connector-curvature="0"
         d="m 0,0 -0.018,-0.143 c -0.146,0.006 -0.237,-0.005 -0.277,-0.015 -0.015,-0.009 -0.032,-0.018 -0.044,-0.035 -0.015,-0.016 -0.034,-0.059 -0.046,-0.12 -0.034,-0.139 -0.084,-0.4 -0.152,-0.777 -0.066,-0.381 -0.118,-0.665 -0.152,-0.865 -0.053,-0.339 -0.081,-0.534 -0.081,-0.58 0,-0.039 0.006,-0.063 0.019,-0.074 0.012,-0.024 0.028,-0.033 0.055,-0.039 0.047,-0.015 0.122,-0.024 0.217,-0.024 l 0.085,0.002 -0.022,-0.137 c -0.245,0.013 -0.373,0.016 -0.385,0.016 l -0.528,-0.016 -0.019,0.026 c 0.038,0.179 0.072,0.339 0.097,0.491 -0.215,-0.23 -0.41,-0.393 -0.587,-0.488 -0.122,-0.068 -0.255,-0.098 -0.411,-0.098 -0.124,0 -0.233,0.019 -0.329,0.056 -0.071,0.029 -0.137,0.072 -0.192,0.128 -0.059,0.055 -0.103,0.109 -0.131,0.172 -0.05,0.091 -0.072,0.187 -0.072,0.282 0,0.042 0,0.083 0.004,0.129 0.006,0.06 0.013,0.134 0.028,0.234 0.028,0.17 0.062,0.363 0.102,0.589 0.044,0.222 0.072,0.389 0.09,0.504 0.038,0.235 0.062,0.369 0.065,0.404 0.007,0.039 0.01,0.078 0.01,0.113 0,0.028 -0.006,0.05 -0.013,0.061 -0.008,0.011 -0.024,0.019 -0.046,0.03 -0.031,0.011 -0.075,0.02 -0.134,0.024 -0.102,0.005 -0.154,0.007 -0.167,0.007 L -3.012,0 c 0.027,-0.004 0.102,-0.004 0.217,-0.009 l 0.457,-0.01 0.025,0 c 0.061,0 0.139,0.002 0.226,0.019 l 0.021,-0.033 C -2.121,-0.28 -2.158,-0.463 -2.18,-0.58 -2.236,-0.886 -2.298,-1.212 -2.358,-1.568 -2.4,-1.816 -2.426,-1.959 -2.428,-2.007 -2.431,-2.051 -2.435,-2.096 -2.435,-2.14 c 0,-0.124 0.038,-0.219 0.115,-0.289 0.078,-0.076 0.179,-0.108 0.316,-0.108 0.097,0 0.197,0.021 0.305,0.071 0.106,0.053 0.218,0.133 0.335,0.25 0.075,0.076 0.118,0.128 0.135,0.167 0.005,0.022 0.033,0.166 0.08,0.435 0.056,0.319 0.093,0.537 0.112,0.645 0.074,0.435 0.108,0.676 0.108,0.721 0,0.031 -0.012,0.053 -0.034,0.063 -0.033,0.02 -0.146,0.035 -0.335,0.042 L -1.279,0 -1.242,0 -0.598,-0.019 0,0"
         style="fill:#231f20;fill-opacity:1;fill-rule:nonzero;stroke:none"
         id="path4709" />
    </g>
    <g
       id="g4711"
       transform="matrix(12.843235,0,0,-12.843235,413.89799,843.51907)">
      <path
         inkscape:connector-curvature="0"
         d="m 0,0 0.015,0.137 c 0.162,0 0.261,0.006 0.299,0.026 C 0.331,0.165 0.345,0.174 0.35,0.189 0.372,0.219 0.4,0.33 0.438,0.521 0.531,1.01 0.609,1.44 0.671,1.818 0.733,2.192 0.763,2.422 0.763,2.5 0.763,2.526 0.757,2.55 0.746,2.57 0.729,2.589 0.707,2.598 0.676,2.603 0.637,2.613 0.534,2.62 0.372,2.62 l 0.019,0.139 c 0.261,-0.013 0.475,-0.02 0.646,-0.02 0.087,0 0.217,0.005 0.395,0.009 0.173,0.009 0.316,0.011 0.425,0.011 0.201,0 0.357,-0.028 0.463,-0.08 C 2.428,2.622 2.509,2.546 2.562,2.446 2.615,2.344 2.639,2.227 2.639,2.094 2.639,1.955 2.612,1.827 2.559,1.71 2.504,1.595 2.434,1.497 2.351,1.419 2.267,1.34 2.174,1.277 2.081,1.234 1.944,1.169 1.798,1.138 1.648,1.138 1.525,1.138 1.394,1.16 1.252,1.208 L 1.23,1.356 C 1.354,1.321 1.459,1.297 1.543,1.297 c 0.088,0 0.177,0.032 0.264,0.087 0.091,0.058 0.162,0.152 0.218,0.28 0.056,0.13 0.081,0.263 0.081,0.402 0,0.106 -0.017,0.2 -0.05,0.278 C 2.022,2.418 1.963,2.477 1.882,2.52 1.804,2.559 1.708,2.579 1.6,2.579 1.543,2.579 1.444,2.57 1.307,2.55 1.257,2.309 1.187,1.916 1.093,1.371 1,0.828 0.941,0.484 0.926,0.35 0.922,0.317 0.919,0.289 0.919,0.261 0.919,0.224 0.926,0.204 0.941,0.185 0.959,0.172 0.994,0.163 1.052,0.154 1.087,0.146 1.177,0.143 1.326,0.137 L 1.307,0 0.642,0.015 C 0.571,0.015 0.357,0.013 0,0"
         style="fill:#231f20;fill-opacity:1;fill-rule:nonzero;stroke:none"
         id="path4713" />
    </g>
    <g
       id="g4715"
       transform="matrix(12.843235,0,0,-12.843235,451.1177,843.51907)">
      <path
         inkscape:connector-curvature="0"
         d="M 0,0 0.019,0.126 C 0.147,0.143 0.224,0.163 0.248,0.182 0.264,0.191 0.274,0.209 0.283,0.23 0.308,0.289 0.349,0.467 0.401,0.773 0.429,0.915 0.478,1.212 0.557,1.666 0.646,2.172 0.69,2.457 0.69,2.513 0.69,2.542 0.684,2.559 0.671,2.572 0.655,2.592 0.619,2.603 0.566,2.611 0.531,2.618 0.444,2.622 0.308,2.631 L 0.333,2.759 C 0.724,2.746 0.935,2.739 0.972,2.739 L 1.68,2.75 c 0.124,0.007 0.283,0.009 0.463,0.009 0.09,0 0.165,-0.002 0.23,-0.013 L 2.395,2.724 C 2.376,2.653 2.352,2.503 2.311,2.27 2.301,2.209 2.296,2.153 2.289,2.103 l -0.136,0 0.003,0.284 c 0,0.04 0,0.066 -0.006,0.077 C 2.143,2.477 2.134,2.483 2.119,2.494 2.096,2.507 2.066,2.52 2.028,2.526 1.988,2.533 1.913,2.542 1.808,2.553 1.739,2.559 1.668,2.563 1.594,2.563 1.447,2.563 1.327,2.555 1.227,2.542 L 1.09,1.842 C 1.072,1.76 1.056,1.657 1.032,1.54 1.363,1.532 1.548,1.529 1.581,1.529 c 0.121,0 0.243,0.003 0.373,0.011 L 1.966,1.518 1.917,1.323 c -0.026,0 -0.153,0.002 -0.386,0.009 L 1.193,1.349 C 1.168,1.349 1.106,1.342 1.003,1.336 0.975,1.188 0.945,0.988 0.9,0.741 L 0.833,0.358 C 0.823,0.315 0.817,0.269 0.817,0.228 0.919,0.213 1.068,0.209 1.27,0.209 c 0.109,0 0.196,0 0.259,0.004 C 1.68,0.228 1.777,0.241 1.811,0.25 1.842,0.258 1.87,0.269 1.886,0.282 1.905,0.291 1.92,0.315 1.932,0.339 1.944,0.365 1.979,0.482 2.042,0.695 l 0.145,0 C 2.162,0.589 2.143,0.497 2.13,0.428 L 2.059,0.039 2.042,0.015 C 1.979,0.004 1.895,0 1.796,0 1.612,0 1.413,0 1.203,0.007 0.851,0.013 0.665,0.015 0.637,0.015 0.385,0.015 0.173,0.013 0,0"
         style="fill:#231f20;fill-opacity:1;fill-rule:nonzero;stroke:none"
         id="path4717" />
    </g>
    <g
       id="g4719"
       transform="matrix(12.843235,0,0,-12.843235,487.81091,843.51907)">
      <path
         inkscape:connector-curvature="0"
         d="m 0,0 0.012,0.137 0.034,0 C 0.168,0.135 0.245,0.143 0.283,0.159 0.298,0.163 0.31,0.172 0.323,0.182 0.338,0.204 0.357,0.241 0.37,0.291 0.382,0.348 0.425,0.6 0.504,1.047 L 0.628,1.762 C 0.702,2.183 0.739,2.433 0.739,2.511 0.739,2.535 0.733,2.559 0.717,2.579 0.708,2.594 0.681,2.603 0.649,2.611 0.618,2.62 0.528,2.622 0.376,2.622 L 0.398,2.763 0.794,2.746 C 0.898,2.744 0.975,2.739 1.032,2.739 c 0.03,0 0.179,0.007 0.444,0.018 0.118,0.002 0.235,0.002 0.35,0.002 0.19,0 0.333,-0.022 0.432,-0.061 C 2.357,2.661 2.438,2.598 2.5,2.507 2.562,2.416 2.593,2.307 2.593,2.183 2.593,2.023 2.534,1.868 2.414,1.729 2.296,1.586 2.084,1.49 1.777,1.44 1.848,1.323 2,1.067 2.233,0.66 2.383,0.404 2.476,0.258 2.509,0.217 2.534,0.185 2.562,0.165 2.591,0.154 2.618,0.143 2.674,0.137 2.759,0.137 L 2.746,0 2.327,0.015 2.096,0.004 C 2.081,0 2.056,0 2.026,0 L 1.773,0.474 C 1.622,0.736 1.509,0.932 1.441,1.051 1.413,1.101 1.389,1.145 1.367,1.173 1.339,1.225 1.283,1.31 1.202,1.44 L 1.218,1.497 C 1.271,1.492 1.311,1.492 1.339,1.492 c 0.139,0 0.267,0.029 0.379,0.079 0.112,0.045 0.199,0.126 0.254,0.228 0.059,0.1 0.087,0.219 0.087,0.36 0,0.137 -0.037,0.244 -0.115,0.315 C 1.867,2.544 1.746,2.579 1.578,2.579 1.454,2.579 1.354,2.57 1.274,2.55 1.242,2.405 1.177,2.042 1.072,1.458 1.022,1.164 0.975,0.882 0.929,0.595 0.904,0.426 0.885,0.33 0.885,0.311 c 0,-0.02 0,-0.04 0,-0.053 0,-0.03 0.003,-0.049 0.019,-0.069 C 0.916,0.172 0.938,0.159 0.97,0.154 1.016,0.143 1.109,0.137 1.249,0.137 L 1.236,0 0.544,0.015 C 0.482,0.015 0.302,0.013 0,0"
         style="fill:#231f20;fill-opacity:1;fill-rule:nonzero;stroke:none"
         id="path4721" />
    </g>
    <g
       id="g4723"
       transform="matrix(12.843235,0,0,-12.843235,544.75773,843.32653)">
      <path
         inkscape:connector-curvature="0"
         d="M 0,0 0.446,-0.015 0.461,0.122 C 0.338,0.128 0.264,0.13 0.235,0.135 0.186,0.139 0.158,0.15 0.135,0.167 0.124,0.182 0.117,0.193 0.117,0.209 c 0,0.032 0.018,0.084 0.056,0.169 0.096,0.2 0.218,0.43 0.367,0.686 l 0.72,0 c 0.031,0 0.084,0 0.162,0 C 1.478,0.608 1.506,0.326 1.506,0.232 1.506,0.202 1.499,0.182 1.493,0.167 1.481,0.156 1.462,0.148 1.428,0.139 1.382,0.128 1.294,0.122 1.176,0.122 l 0,-0.137 C 1.537,-0.002 1.732,0 1.761,0 l 0.623,-0.015 0,0.137 C 2.232,0.128 2.145,0.139 2.121,0.148 2.104,0.154 2.096,0.163 2.084,0.174 2.068,0.198 2.05,0.263 2.034,0.369 1.987,0.634 1.919,1.073 1.828,1.694 1.776,2.051 1.73,2.403 1.682,2.744 l -0.378,0 C 1.279,2.696 1.114,2.413 0.816,1.905 L 0.012,0.55 C -0.122,0.321 -0.199,0.193 -0.218,0.174 -0.23,0.159 -0.246,0.15 -0.268,0.148 -0.277,0.143 -0.352,0.135 -0.489,0.122 l 0,-0.137 L 0,0 z M 1.245,2.29 1.397,1.243 C 1.354,1.24 1.142,1.238 0.761,1.238 0.714,1.238 0.67,1.24 0.633,1.243 L 1.245,2.29"
         style="fill:#231f20;fill-opacity:1;fill-rule:nonzero;stroke:none"
         id="path4725" />
    </g>
    <g
       id="g4727"
       transform="matrix(12.843235,0,0,-12.843235,621.5345,807.48107)">
      <path
         inkscape:connector-curvature="0"
         d="m 0,0 -0.018,-0.143 c -0.143,0.006 -0.238,-0.005 -0.273,-0.015 -0.019,-0.009 -0.036,-0.018 -0.044,-0.035 -0.017,-0.016 -0.037,-0.059 -0.051,-0.12 -0.032,-0.139 -0.082,-0.4 -0.151,-0.777 -0.065,-0.381 -0.116,-0.665 -0.151,-0.865 -0.054,-0.339 -0.082,-0.534 -0.082,-0.58 0,-0.039 0.005,-0.063 0.018,-0.074 0.012,-0.024 0.029,-0.033 0.055,-0.039 0.051,-0.015 0.121,-0.024 0.217,-0.024 l 0.086,0.002 -0.021,-0.137 c -0.246,0.013 -0.374,0.016 -0.39,0.016 l -0.525,-0.016 -0.016,0.026 c 0.036,0.179 0.07,0.339 0.093,0.491 -0.212,-0.23 -0.407,-0.393 -0.585,-0.488 -0.123,-0.068 -0.258,-0.098 -0.412,-0.098 -0.123,0 -0.234,0.019 -0.328,0.056 -0.072,0.029 -0.137,0.072 -0.193,0.128 -0.055,0.055 -0.102,0.109 -0.133,0.172 -0.047,0.091 -0.071,0.187 -0.071,0.282 0,0.042 0.003,0.083 0.005,0.129 0.007,0.06 0.016,0.134 0.031,0.234 0.025,0.17 0.056,0.363 0.101,0.589 0.039,0.222 0.074,0.389 0.092,0.504 0.035,0.235 0.056,0.369 0.062,0.404 0.006,0.039 0.006,0.078 0.006,0.113 0,0.028 -0.002,0.05 -0.012,0.061 -0.006,0.011 -0.021,0.019 -0.043,0.03 -0.028,0.011 -0.071,0.02 -0.134,0.024 -0.103,0.005 -0.158,0.007 -0.168,0.007 L -3.013,0 c 0.028,-0.004 0.099,-0.004 0.214,-0.009 l 0.461,-0.01 0.024,0 c 0.064,0 0.14,0.002 0.227,0.019 l 0.024,-0.033 C -2.12,-0.28 -2.158,-0.463 -2.184,-0.58 -2.241,-0.886 -2.299,-1.212 -2.357,-1.568 -2.4,-1.816 -2.421,-1.959 -2.43,-2.007 -2.435,-2.051 -2.435,-2.096 -2.435,-2.14 c 0,-0.124 0.038,-0.219 0.115,-0.289 0.074,-0.076 0.18,-0.108 0.315,-0.108 0.099,0 0.199,0.021 0.307,0.071 0.106,0.053 0.216,0.133 0.333,0.25 0.077,0.076 0.118,0.128 0.132,0.167 0.009,0.022 0.037,0.166 0.085,0.435 0.056,0.319 0.092,0.537 0.111,0.645 0.072,0.435 0.108,0.676 0.108,0.721 0,0.031 -0.012,0.053 -0.03,0.063 -0.039,0.02 -0.153,0.035 -0.339,0.042 L -1.278,0 -1.243,0 -0.596,-0.019 0,0"
         style="fill:#231f20;fill-opacity:1;fill-rule:nonzero;stroke:none"
         id="path4729" />
    </g>
    <g
       id="g4731"
       transform="matrix(12.843235,0,0,-12.843235,631.17988,843.32653)">
      <path
         inkscape:connector-curvature="0"
         d="m 0,0 c 0.06,0 0.142,0 0.235,0 0.125,0 0.25,0 0.368,-0.007 0.205,-0.004 0.346,-0.008 0.42,-0.008 0.223,0 0.434,0.039 0.626,0.13 0.192,0.087 0.368,0.211 0.516,0.38 C 2.318,0.656 2.438,0.843 2.506,1.064 2.585,1.28 2.621,1.49 2.621,1.69 2.621,1.912 2.575,2.107 2.48,2.272 2.383,2.437 2.256,2.555 2.087,2.626 1.92,2.702 1.706,2.735 1.442,2.735 1.364,2.735 1.195,2.735 0.939,2.731 0.731,2.728 0.553,2.724 0.412,2.724 0.235,2.724 0.085,2.731 -0.04,2.744 L -0.064,2.605 c 0.005,0 0.071,-0.007 0.192,-0.016 C 0.201,2.585 0.246,2.583 0.263,2.576 0.279,2.574 0.292,2.563 0.301,2.548 0.312,2.535 0.317,2.516 0.317,2.487 0.317,2.411 0.298,2.255 0.259,2.014 0.171,1.503 0.1,1.082 0.038,0.754 -0.021,0.428 -0.059,0.248 -0.078,0.213 -0.087,0.193 -0.099,0.174 -0.11,0.163 -0.141,0.143 -0.217,0.126 -0.34,0.111 L -0.35,-0.015 0,0 z m 0.655,1.432 0.2,1.099 C 0.967,2.544 1.097,2.555 1.243,2.555 1.392,2.555 1.517,2.537 1.614,2.507 1.711,2.479 1.796,2.431 1.868,2.351 1.939,2.283 1.987,2.192 2.023,2.077 2.053,1.959 2.069,1.851 2.069,1.738 2.069,1.571 2.05,1.392 2.01,1.197 1.972,1.006 1.917,0.841 1.854,0.71 1.787,0.576 1.709,0.46 1.622,0.374 1.566,0.315 1.502,0.274 1.427,0.241 1.319,0.196 1.195,0.174 1.046,0.174 0.988,0.174 0.92,0.182 0.851,0.187 l -0.393,0.05 c 0.027,0.182 0.091,0.58 0.197,1.195"
         style="fill:#231f20;fill-opacity:1;fill-rule:nonzero;stroke:none"
         id="path4733" />
    </g>
    <g
       id="g4735"
       transform="matrix(12.843235,0,0,-12.843235,669.55533,843.51907)">
      <path
         inkscape:connector-curvature="0"
         d="M 0,0 0.015,0.137 C 0.135,0.135 0.229,0.141 0.294,0.159 0.311,0.163 0.322,0.169 0.332,0.174 0.347,0.198 0.366,0.224 0.381,0.263 0.39,0.298 0.429,0.465 0.483,0.76 L 0.67,1.801 C 0.742,2.185 0.782,2.422 0.782,2.507 0.782,2.535 0.769,2.561 0.754,2.579 0.735,2.594 0.704,2.603 0.655,2.609 0.623,2.611 0.543,2.613 0.406,2.62 l 0.023,0.139 c 0.204,-0.013 0.391,-0.02 0.562,-0.02 0.113,0 0.347,0.007 0.698,0.02 L 1.666,2.62 C 1.519,2.62 1.429,2.613 1.394,2.603 1.375,2.598 1.36,2.589 1.345,2.572 1.33,2.559 1.316,2.533 1.307,2.503 1.285,2.429 1.242,2.201 1.178,1.801 1.091,1.293 1.028,0.943 0.991,0.741 0.944,0.484 0.917,0.328 0.917,0.263 0.917,0.23 0.928,0.209 0.94,0.189 0.952,0.172 0.977,0.163 1.014,0.15 1.056,0.141 1.148,0.137 1.304,0.137 L 1.285,0 C 0.969,0.013 0.76,0.015 0.666,0.015 0.605,0.015 0.381,0.013 0,0"
         style="fill:#231f20;fill-opacity:1;fill-rule:nonzero;stroke:none"
         id="path4737" />
    </g>
    <g
       id="g4739"
       transform="matrix(12.843235,0,0,-12.843235,697.1941,835.96734)">
      <path
         inkscape:connector-curvature="0"
         d="m 0,0 c 0.049,-0.132 0.125,-0.252 0.227,-0.356 0.1,-0.096 0.226,-0.17 0.375,-0.224 0.152,-0.052 0.319,-0.078 0.503,-0.078 0.355,0 0.656,0.085 0.911,0.26 C 2.273,-0.224 2.47,0.013 2.609,0.308 2.724,0.56 2.784,0.821 2.784,1.093 2.784,1.44 2.677,1.716 2.47,1.918 2.256,2.118 1.959,2.22 1.576,2.22 1.342,2.22 1.143,2.188 0.971,2.127 0.801,2.055 0.655,1.975 0.54,1.877 0.423,1.777 0.327,1.671 0.246,1.553 0.141,1.39 0.062,1.212 0.009,1.019 -0.043,0.823 -0.068,0.639 -0.068,0.463 -0.068,0.287 -0.049,0.132 0,0 z M 0.527,0.839 C 0.555,1.03 0.609,1.21 0.671,1.375 0.739,1.536 0.81,1.671 0.888,1.76 0.964,1.857 1.053,1.927 1.153,1.975 1.25,2.02 1.372,2.042 1.514,2.042 1.646,2.042 1.758,2.02 1.854,1.975 1.954,1.927 2.027,1.873 2.081,1.805 2.131,1.736 2.171,1.649 2.196,1.551 2.221,1.447 2.233,1.332 2.233,1.21 2.233,1.019 2.206,0.815 2.155,0.606 2.107,0.393 2.044,0.209 1.968,0.052 1.914,-0.067 1.852,-0.163 1.786,-0.239 1.717,-0.313 1.64,-0.369 1.547,-0.417 1.454,-0.458 1.342,-0.482 1.215,-0.482 c -0.091,0 -0.174,0.017 -0.259,0.039 -0.087,0.028 -0.157,0.063 -0.214,0.111 -0.06,0.041 -0.109,0.091 -0.147,0.149 -0.036,0.066 -0.064,0.137 -0.083,0.229 -0.021,0.091 -0.03,0.189 -0.03,0.291 0,0.141 0.014,0.308 0.045,0.502"
         style="fill:#231f20;fill-opacity:1;fill-rule:nonzero;stroke:none"
         id="path4741" />
    </g>
    <g
       id="g4743"
       transform="matrix(12.843235,0,0,-12.843235,783.73191,837.44422)">
      <path
         inkscape:connector-curvature="0"
         d="m 0,0 -0.045,-0.156 c -0.106,-0.07 -0.224,-0.144 -0.348,-0.203 -0.13,-0.062 -0.238,-0.106 -0.339,-0.13 -0.126,-0.035 -0.264,-0.054 -0.413,-0.054 -0.195,0 -0.356,0.026 -0.49,0.082 -0.133,0.053 -0.246,0.124 -0.329,0.211 -0.085,0.094 -0.147,0.189 -0.182,0.293 -0.054,0.142 -0.077,0.3 -0.077,0.472 0,0.239 0.036,0.471 0.11,0.688 0.077,0.17 0.164,0.32 0.271,0.446 0.107,0.128 0.263,0.271 0.474,0.419 0.155,0.089 0.299,0.157 0.432,0.202 0.14,0.044 0.283,0.065 0.435,0.065 0.158,0 0.314,-0.019 0.456,-0.058 C 0.098,2.244 0.2,2.198 0.262,2.148 0.182,1.883 0.13,1.66 0.114,1.475 l -0.141,0 0.014,0.339 c 0,0.03 -0.006,0.052 -0.019,0.067 -0.016,0.022 -0.043,0.048 -0.082,0.07 -0.033,0.021 -0.099,0.05 -0.187,0.087 -0.104,0.03 -0.222,0.047 -0.352,0.047 -0.151,0 -0.273,-0.026 -0.378,-0.065 C -1.131,1.979 -1.22,1.92 -1.302,1.838 -1.387,1.755 -1.451,1.649 -1.51,1.516 -1.571,1.386 -1.61,1.24 -1.635,1.093 -1.659,0.936 -1.673,0.754 -1.673,0.541 c 0,-0.163 0.029,-0.309 0.084,-0.43 0.057,-0.128 0.143,-0.226 0.258,-0.287 0.118,-0.067 0.253,-0.096 0.412,-0.096 0.11,0 0.217,0.011 0.322,0.04 0.102,0.028 0.194,0.06 0.274,0.099 0.022,0.014 0.117,0.066 0.278,0.172 L 0,0"
         style="fill:#231f20;fill-opacity:1;fill-rule:nonzero;stroke:none"
         id="path4745" />
    </g>
    <g
       id="g4747"
       transform="matrix(12.843235,0,0,-12.843235,796.84475,843.32653)">
      <path
         inkscape:connector-curvature="0"
         d="m 0,0 c 0.062,0 0.14,0 0.235,0 0.129,0 0.25,0 0.368,-0.007 0.205,-0.004 0.347,-0.008 0.419,-0.008 0.226,0 0.435,0.039 0.63,0.13 0.193,0.087 0.364,0.211 0.517,0.38 C 2.32,0.656 2.434,0.843 2.511,1.064 2.585,1.28 2.623,1.49 2.623,1.69 2.623,1.912 2.575,2.107 2.479,2.272 2.386,2.437 2.255,2.555 2.091,2.626 1.923,2.702 1.708,2.735 1.443,2.735 1.368,2.735 1.196,2.735 0.935,2.731 0.731,2.728 0.553,2.724 0.409,2.724 c -0.174,0 -0.322,0.007 -0.446,0.02 L -0.064,2.605 c 0.005,0 0.073,-0.007 0.192,-0.016 C 0.202,2.585 0.246,2.583 0.263,2.576 0.279,2.574 0.294,2.563 0.304,2.548 0.314,2.535 0.32,2.516 0.32,2.487 0.32,2.411 0.298,2.255 0.258,2.014 0.173,1.503 0.1,1.082 0.041,0.754 -0.021,0.428 -0.059,0.248 -0.07,0.213 -0.084,0.193 -0.097,0.174 -0.112,0.163 -0.141,0.143 -0.214,0.126 -0.338,0.111 L -0.35,-0.015 0,0 z m 0.655,1.432 0.198,1.099 c 0.116,0.013 0.246,0.024 0.39,0.024 0.151,0 0.276,-0.018 0.373,-0.048 C 1.711,2.479 1.796,2.431 1.867,2.351 1.938,2.283 1.991,2.192 2.023,2.077 2.057,1.959 2.072,1.851 2.072,1.738 2.072,1.571 2.05,1.392 2.01,1.197 1.972,1.006 1.92,0.841 1.855,0.71 1.789,0.576 1.711,0.46 1.621,0.374 1.567,0.315 1.503,0.274 1.427,0.241 1.32,0.196 1.196,0.174 1.051,0.174 c -0.063,0 -0.125,0.008 -0.2,0.013 l -0.39,0.05 c 0.024,0.182 0.089,0.58 0.194,1.195"
         style="fill:#231f20;fill-opacity:1;fill-rule:nonzero;stroke:none"
         id="path4749" />
    </g>
  </g>
</svg>
